<?xml version="1.0" encoding="utf-8"?>
<!-- Generator: Adobe Illustrator 18.0.0, SVG Export Plug-In . SVG Version: 6.00 Build 0)  -->
<!DOCTYPE svg PUBLIC "-//W3C//DTD SVG 1.1//EN" "http://www.w3.org/Graphics/SVG/1.1/DTD/svg11.dtd">
<svg version="1.1" id="Layer_3" xmlns="http://www.w3.org/2000/svg" xmlns:xlink="http://www.w3.org/1999/xlink" x="0px" y="0px"
	 viewBox="379.2 62.5 37.4 30.6" enable-background="new 379.2 62.5 37.4 30.6" xml:space="preserve">
<g>
	<path fill="#B6B6B6" d="M400.4,84.9c1.7-1,3.1-2.9,3.9-5.3h-0.6c-1,3.3-3.4,5.6-6,5.6c-0.9,0-1.8-0.1-2.7-0.2
		c-1.7-1-3.1-2.9-3.9-5.3h0.6c1,3.3,3.4,5.6,6,5.6C398.7,85.1,399.6,85.1,400.4,84.9"/>
	<path fill="#B6B6B6" d="M397.8,85.6c5.3,0,9.9-2.5,11.9-6.1h-1.1c-1.9,3.3-6,5.6-10.8,5.6s-9-2.3-10.8-5.6h-1.1
		C387.8,83.1,392.4,85.6,397.8,85.6"/>
	<path fill="#B6B6B6" d="M406.4,81.9c-2.6-0.8-5.5-1.2-8.6-1.2c-3.1,0-6.1,0.4-8.6,1.2c0.1,0.1,0.1,0.1,0.2,0.2
		c2.6-0.5,5.4-0.9,8.4-0.9s5.8,0.3,8.4,0.9C406.3,82,406.3,82,406.4,81.9"/>
	<path fill="#B6B6B6" d="M409.7,68.5c-2-3.6-6.6-6.1-11.9-6.1c-5.3,0-9.9,2.5-11.9,6.1h1.1c1.9-3.3,6-5.6,10.8-5.6s9,2.3,10.8,5.6
		H409.7z"/>
	<path fill="#B6B6B6" d="M404.3,68.5c-0.8-2.4-2.1-4.3-3.9-5.3c-0.9-0.2-1.8-0.2-2.7-0.2c-2.7,0-4.9,2.3-6,5.6h-0.6
		c0.8-2.4,2.1-4.3,3.9-5.3c0.9-0.2,1.8-0.2,2.7-0.2c2.7,0,4.9,2.3,6,5.6h0.6V68.5z"/>
	<path fill="#B6B6B6" d="M397.8,67.4c3.1,0,6.1-0.4,8.6-1.2c-0.1-0.1-0.1-0.1-0.2-0.2c-2.6,0.5-5.4,0.9-8.4,0.9
		c-3,0-5.8-0.3-8.4-0.9c-0.1,0.1-0.1,0.1-0.2,0.2C391.7,66.9,394.7,67.4,397.8,67.4"/>
	<path fill="#B6B6B6" d="M412.1,75.6c-0.4,0-0.7,0.3-0.7,0.7c0,0.4,0.3,0.7,0.7,0.7c0.4,0,0.7-0.3,0.7-0.7
		C412.8,75.9,412.5,75.6,412.1,75.6 M390.9,75.6c-0.4,0-0.7,0.3-0.7,0.7c0,0.4,0.3,0.7,0.7,0.7c0.4,0,0.7-0.3,0.7-0.7
		C391.6,75.9,391.3,75.6,390.9,75.6"/>
	<path fill="#B6B6B6" d="M412.2,70.1l-3.2,5.8h-2.3l0,0c-1.7,0.1-2.5-0.9-2.6-1.8c-0.1-0.8,0.5-1.4,1.5-1.7c0.3-0.1,0.7-0.1,1.1-0.1
		l2.3-0.1v-1.9h-2.7c-2.3,0-3.9,1-4.2,3.2c-0.2-1.9-1.6-2.9-3.4-3.2c-0.2,0-0.5-0.1-0.8-0.1h-2.8v7.1l-3.9-7.3l-4.2,7.6l0.1-7.4
		h-2.1v4.2l-3.5-4.2h-2.1v7.5h2.1v-4.2l3.5,4.1h2.1l0,0h2.3l1.9-3.8l1.9,3.8h5c0.2,0,0.5,0,0.7-0.1c1.9-0.2,3.2-1.3,3.4-3.1
		c0.2,2,1.8,3.2,4.2,3.2h4.1l1.9-3.8l1.9,3.8h2.3L412.2,70.1z M398.6,75.8c-0.4,0.1-0.8,0.2-1.4,0.2v-3.7c0.5-0.1,1,0,1.4,0.1
		c1,0.3,1.4,1,1.4,1.7C400,74.8,399.5,75.4,398.6,75.8"/>
	<path fill="#B6B6B6" d="M400.4,84.9c1.7-1,3.1-2.9,3.9-5.3h-0.6c-1,3.3-3.4,5.6-6,5.6c-0.9,0-1.8-0.1-2.7-0.2
		c-1.7-1-3.1-2.9-3.9-5.3h0.6c1,3.3,3.4,5.6,6,5.6C398.7,85.1,399.6,85.1,400.4,84.9"/>
	<path fill="#B6B6B6" d="M397.8,85.6c5.3,0,9.9-2.5,11.9-6.1h-1.1c-1.9,3.3-6,5.6-10.8,5.6s-9-2.3-10.8-5.6h-1.1
		C387.8,83.1,392.4,85.6,397.8,85.6"/>
	<path fill="#B6B6B6" d="M406.4,81.9c-2.6-0.8-5.5-1.2-8.6-1.2c-3.1,0-6.1,0.4-8.6,1.2c0.1,0.1,0.1,0.1,0.2,0.2
		c2.6-0.5,5.4-0.9,8.4-0.9s5.8,0.3,8.4,0.9C406.3,82,406.3,82,406.4,81.9"/>
	<path fill="#B6B6B6" d="M409.7,68.5c-2-3.6-6.6-6.1-11.9-6.1c-5.3,0-9.9,2.5-11.9,6.1h1.1c1.9-3.3,6-5.6,10.8-5.6s9,2.3,10.8,5.6
		H409.7z"/>
	<path fill="#B6B6B6" d="M404.3,68.5c-0.8-2.4-2.1-4.3-3.9-5.3c-0.9-0.2-1.8-0.2-2.7-0.2c-2.7,0-4.9,2.3-6,5.6h-0.6
		c0.8-2.4,2.1-4.3,3.9-5.3c0.9-0.2,1.8-0.2,2.7-0.2c2.7,0,4.9,2.3,6,5.6h0.6V68.5z"/>
	<path fill="#B6B6B6" d="M397.8,67.4c3.1,0,6.1-0.4,8.6-1.2c-0.1-0.1-0.1-0.1-0.2-0.2c-2.6,0.5-5.4,0.9-8.4,0.9
		c-3,0-5.8-0.3-8.4-0.9c-0.1,0.1-0.1,0.1-0.2,0.2C391.7,66.9,394.7,67.4,397.8,67.4"/>
	<path fill="#B6B6B6" d="M412.1,75.6c-0.4,0-0.7,0.3-0.7,0.7c0,0.4,0.3,0.7,0.7,0.7c0.4,0,0.7-0.3,0.7-0.7
		C412.8,75.9,412.5,75.6,412.1,75.6 M390.9,75.6c-0.4,0-0.7,0.3-0.7,0.7c0,0.4,0.3,0.7,0.7,0.7c0.4,0,0.7-0.3,0.7-0.7
		C391.6,75.9,391.3,75.6,390.9,75.6"/>
	<path fill="#B6B6B6" d="M412.2,70.1l-3.2,5.8h-2.3l0,0c-1.7,0.1-2.5-0.9-2.6-1.8c-0.1-0.8,0.5-1.4,1.5-1.7c0.3-0.1,0.7-0.1,1.1-0.1
		l2.3-0.1v-1.9h-2.7c-2.3,0-3.9,1-4.2,3.2c-0.2-1.9-1.6-2.9-3.4-3.2c-0.2,0-0.5-0.1-0.8-0.1h-2.8v7.1l-3.9-7.3l-4.2,7.6l0.1-7.4
		h-2.1v4.2l-3.5-4.2h-2.1v7.5h2.1v-4.2l3.5,4.1h2.1l0,0h2.3l1.9-3.8l1.9,3.8h5c0.2,0,0.5,0,0.7-0.1c1.9-0.2,3.2-1.3,3.4-3.1
		c0.2,2,1.8,3.2,4.2,3.2h4.1l1.9-3.8l1.9,3.8h2.3L412.2,70.1z M398.6,75.8c-0.4,0.1-0.8,0.2-1.4,0.2v-3.7c0.5-0.1,1,0,1.4,0.1
		c1,0.3,1.4,1,1.4,1.7C400,74.8,399.5,75.4,398.6,75.8"/>
</g>
<g>
	<path fill="#B6B6B6" d="M380.7,87.7c-0.5,0.1-0.7,0.1-0.7,0.2l0.1,1.7l-0.1,0.1l-0.1-0.1c0-0.3-0.1-1.1-0.1-1.7
		c-0.1-0.1-0.2,0-0.4,0.1c-0.1,0.1-0.2,0.2-0.2,0.1c0,0,0-0.1-0.1-0.2c0.4-0.2,0.9-0.3,1.4-0.3c0.2,0.1,0.5-0.1,0.6,0.1
		C381.1,87.8,381,87.7,380.7,87.7z"/>
	<path fill="#B6B6B6" d="M381.8,89.8c0.1-0.5,0.3-1.3,0.1-1.4c-0.2-0.1-0.5,0.2-0.5,0.4c-0.1,0.3-0.1,0.6-0.2,0.9
		c-0.1,0-0.2-0.1-0.2-0.2c0.1-0.6,0-1.3,0.2-1.8c0.1,0,0.1,0,0.1,0c0,0,0.1,0.1,0.1,0.1c0.1,0.2-0.1,0.5-0.1,0.8
		c0.2-0.2,0.4-0.5,0.7-0.3c0.5,0.5,0.1,1.2,0,1.7C381.9,89.9,381.8,89.8,381.8,89.8z"/>
	<path fill="#B6B6B6" d="M382.8,89.7c-0.2-0.1-0.3-0.2-0.3-0.5c0.1-0.5,0.3-0.9,0.8-1.1c0.2,0,0.3,0,0.4,0.2
		c0.1,0.2-0.1,0.7-0.5,0.9c-0.1,0-0.2,0.1-0.3,0c-0.1-0.1-0.2-0.2-0.2-0.2c-0.1,0.1-0.1,0.3,0,0.4c0.3,0.3,0.9-0.1,0.9-0.1
		c0.1,0.1,0.1,0.1,0.1,0.2C383.5,89.6,383.1,89.8,382.8,89.7z M382.8,88.9c0.1,0.1,0.1,0.1,0.2,0.1c0.2,0,0.6-0.6,0.4-0.6
		C383.2,88.2,382.9,88.6,382.8,88.9z"/>
	<path fill="#B6B6B6" d="M386.2,88.8l-0.1,1.2c-0.1,0.1-0.1-0.1-0.2-0.2c0-0.3,0-0.6-0.1-0.9l-0.8,0.1c-0.1,0.3,0.1,0.6,0.1,0.9
		c0,0.1-0.1,0.1-0.1,0c-0.2-0.2-0.2-0.8-0.2-1l-0.1-0.1c0.1-0.1,0-0.2,0-0.3c0-0.3-0.1-0.6,0.1-0.9c0.1-0.1,0.1,0.1,0.2,0.1v0.9h0.9
		c0.1-0.3,0.1-0.8,0.1-1.2c0.1,0,0.2,0.1,0.2,0.1l-0.1,1c0.1,0,0.2,0.1,0.3,0.1C386.4,88.8,386.2,88.7,386.2,88.8z"/>
	<path fill="#B6B6B6" d="M387.4,89.6c0,0.1-0.1,0.1-0.1,0.1c-0.5-0.5-0.6-1.3-0.9-2c0,0,0.2-0.1,0.2-0.1c0.1,0.1,0.1,0.3,0.2,0.7
		c0.1,0.3,0.2,0.6,0.4,0.9c0.2-0.7,0.2-1.1,0.4-1.6c0.4,0.1,0.1,0.2,0.1,0.5C387.6,88.8,387.6,89.3,387.4,89.6z"/>
	<path fill="#B6B6B6" d="M389.4,89.8C389.4,89.8,389.4,89.7,389.4,89.8c-0.1-0.2-0.1-0.5-0.2-0.8c-0.3,0.1-0.9-0.1-0.9,0.5
		c0,0.1-0.1,0.1-0.1,0.2c-0.1,0.1-0.1-0.1-0.1-0.2c0.1-0.7,0.7-1.2,0.9-1.9h0.1c0.1,0.1,0.1,0.2,0.1,0.2c0.1,0.6,0.3,1.2,0.4,1.8
		C389.5,89.7,389.5,89.8,389.4,89.8z M388.9,88.1l-0.5,0.8l0.7-0.1L388.9,88.1z"/>
	<path fill="#B6B6B6" d="M389.9,89.6c-0.2-0.2-0.3-0.6-0.2-0.8c0.2-0.4,0.6-0.8,1-1c0.2-0.1,0.4,0.1,0.5,0.2v0.1
		c-0.2,0-0.5-0.2-0.7,0.1c-0.3,0.3-0.9,0.7-0.7,1.2c0.5,0.5,1.3,0.1,1.8-0.3c0.1,0.1,0.1,0.2,0,0.2
		C391.2,89.6,390.5,89.9,389.9,89.6z"/>
	<path fill="#B6B6B6" d="M405.5,89.7c-0.2-0.2-0.3-0.6-0.2-0.8c0.2-0.4,0.6-0.8,1-1c0.2-0.1,0.4,0.1,0.5,0.2v0.1
		c-0.2,0-0.5-0.2-0.7,0.1c-0.3,0.3-0.9,0.7-0.7,1.2c0.5,0.5,1.3,0.1,1.8-0.3c0.1,0.1,0.1,0.2,0,0.2
		C406.8,89.6,406.2,89.9,405.5,89.7z"/>
	<path fill="#B6B6B6" d="M392.8,88.1c-0.1,0.6,0.1,0.9,0,1.5c0,0.1,0.1,0.1,0,0.2c-0.1,0.1-0.1,0-0.1,0c-0.1,0-0.1-0.1-0.1-0.1
		c0-0.3-0.1-1.7,0-2c0-0.1,0.2,0,0.2,0.1C392.8,87.9,392.8,87.9,392.8,88.1z"/>
	<path fill="#B6B6B6" d="M407.8,88.1c-0.1,0.6,0.1,0.9,0,1.5c0,0.1,0.1,0.1,0,0.2c-0.1,0.1-0.1,0-0.1,0c-0.1,0-0.1-0.1-0.1-0.1
		c0-0.3-0.1-1.7,0-2c0-0.1,0.2,0,0.2,0.1C407.8,88,407.8,88,407.8,88.1z"/>
	<path fill="#B6B6B6" d="M394.1,89.7c-0.1,0.1-0.1,0.1-0.1,0c0,0-0.1-0.1-0.1-0.1c0.1-0.3,0.1-0.7,0-1.2c0-0.1-0.1-0.2-0.2-0.2
		c-0.2,0-0.3,0.2-0.3,0.3c-0.1,0.2-0.1,0.5-0.1,0.8c0,0.1,0.1,0.2-0.1,0.3c-0.2-0.1-0.2-0.2-0.2-0.3c0-0.6-0.1-0.8,0-1.1
		c0.1-0.1,0.1-0.1,0.1,0c0.1,0.1,0.1,0.2,0.1,0.2c0.2-0.5,0.7-0.6,0.8-0.2C394.3,88.8,394.3,89.3,394.1,89.7z"/>
	<path fill="#B6B6B6" d="M395.5,88.4c-0.2,0-0.7,0.1-0.8,0.3c0,0.1,0.3,0.1,0.3,0.1c0.1,0,0.4,0.1,0.5,0.2c0.1,0.2-0.1,0.4-0.2,0.5
		c-0.2,0.1-0.5,0.2-0.8,0.2c-0.1,0-0.1-0.1-0.1-0.1c0-0.1,0-0.1,0.1-0.1c0.3,0,0.9-0.1,0.9-0.3c0-0.1-0.2-0.1-0.3-0.1
		c-0.1,0-0.5,0-0.5-0.2c-0.1-0.2,0.1-0.3,0.2-0.5c0.2-0.2,0.5-0.2,0.8-0.3c0,0,0.1,0.1,0.1,0.1C395.7,88.3,395.7,88.4,395.5,88.4z"
		/>
	<path fill="#B6B6B6" d="M396.3,89.6L396.3,89.6c-0.1,0-0.1-0.1-0.1,0c0,0.2,0.2,0.5,0.1,0.7c0,0-0.1,0.1-0.1,0
		c-0.1,0-0.1-0.1-0.1-0.1c-0.2-0.6-0.2-1.3-0.2-2c0-0.1,0-0.1,0.1-0.1c0.3-0.2,0.6-0.1,0.9,0.1c0.2,0.2,0.2,0.4,0.2,0.7
		C396.9,89.2,396.6,89.5,396.3,89.6z M396.2,88.2c-0.1,0.1,0,0.8,0,1.2l0.3-0.2c0.2-0.2,0.4-0.5,0.3-0.8
		C396.7,88.3,396.4,88.2,396.2,88.2z"/>
	<path fill="#B6B6B6" d="M397.5,89.7c-0.2-0.1-0.3-0.2-0.3-0.5c0.1-0.5,0.3-0.9,0.8-1.1c0.2,0,0.3,0,0.4,0.2
		c0.1,0.2-0.1,0.7-0.5,0.9c-0.1,0-0.2,0.1-0.3,0c-0.1-0.1-0.2-0.2-0.2-0.2c-0.1,0.1-0.1,0.3,0,0.4c0.3,0.3,0.9-0.1,0.9-0.1
		c0.1,0.1,0.1,0.1,0.1,0.2C398.2,89.6,397.8,89.8,397.5,89.7z M397.5,88.9c0.1,0.1,0.1,0.1,0.2,0.1c0.2,0,0.6-0.6,0.4-0.6
		C397.9,88.2,397.6,88.6,397.5,88.9z"/>
	<path fill="#B6B6B6" d="M399.2,89.6c-0.1,0.1-0.3,0.1-0.4,0c-0.2-0.2-0.2-0.5-0.1-0.7c0.2-0.3,0.2-0.8,0.7-0.9
		c0.1,0,0.2,0.1,0.2,0.2c0,0.1-0.1,0.1-0.2,0.1v-0.2c-0.3,0.2-0.5,0.6-0.6,1c0,0.1,0,0.2,0.2,0.2c0.3-0.1,0.5-0.3,0.6-0.6l0.2,0.1
		C399.8,89.3,399.5,89.5,399.2,89.6z"/>
	<path fill="#B6B6B6" d="M400.3,88.4c-0.1,0.4,0.1,0.8,0.1,1.3c-0.1,0.1-0.1,0.1-0.2,0c-0.1-0.1-0.1-0.2-0.1-0.3l-0.1-0.9
		c-0.1-0.1-0.4,0.2-0.5-0.1c0.2-0.2,0.4-0.1,0.4-0.1v-0.5c0.1,0,0.2,0,0.2,0.1c0,0.2-0.1,0.3,0,0.5c0.2,0,0.5-0.1,0.6,0.1
		C400.7,88.3,400.5,88.4,400.3,88.4z"/>
	<path fill="#B6B6B6" d="M401.1,89.6c-0.2,0.1-0.2-0.1-0.2-0.3v-1.1c0.1-0.1,0.2-0.1,0.2,0.1C401.1,88.7,401.1,89.2,401.1,89.6z
		 M401,87.7l-0.1-0.2c0.2-0.1,0.2,0.1,0.3,0.1C401.2,87.8,401,87.8,401,87.7z"/>
	<path fill="#B6B6B6" d="M402.4,89.5c-0.2,0.2-0.4,0.3-0.6,0.2c-0.4-0.3-0.1-1,0.1-1.4c0.2-0.5,0.7-0.1,0.8,0.2
		C402.6,88.9,402.6,89.2,402.4,89.5z M402.1,88.4c-0.2,0.3-0.5,0.7-0.2,1.1c0.2,0.1,0.3-0.1,0.4-0.2c0.2-0.2,0.2-0.5,0.2-0.8
		C402.4,88.4,402.2,88.2,402.1,88.4z"/>
	<path fill="#B6B6B6" d="M403.9,89.7c-0.1,0.1-0.1,0.1-0.1,0c0,0-0.1-0.1-0.1-0.1c0.1-0.3,0.1-0.7,0-1.2c0-0.1-0.1-0.2-0.2-0.2
		c-0.2,0-0.3,0.2-0.3,0.3c-0.1,0.2-0.1,0.5-0.1,0.8c0,0.1,0.1,0.2-0.1,0.3c-0.2-0.1-0.2-0.2-0.2-0.3c0-0.6-0.1-0.8,0-1.1
		c0.1-0.1,0.1-0.1,0.1,0c0.1,0.1,0.1,0.2,0.1,0.2c0.2-0.5,0.7-0.6,0.8-0.2C404.1,88.8,404.1,89.3,403.9,89.7z"/>
	<path fill="#B6B6B6" d="M404.3,90.2c-0.2,0.2-0.1-0.1-0.1-0.2c0-0.2,0.2-0.3,0.2-0.5c0.1,0,0.1-0.2,0.2-0.1
		c0.2,0.1,0.1,0.2,0.1,0.2C404.6,89.7,404.4,90,404.3,90.2z"/>
	<path fill="#B6B6B6" d="M412.7,89.9c-0.2,0.1-0.2-0.1-0.2-0.3v-1.1c0.1-0.1,0.2-0.1,0.2,0.1C412.6,88.9,412.7,89.4,412.7,89.9z
		 M412.5,88l-0.1-0.2c0.2-0.1,0.2,0.1,0.3,0.1C412.7,88,412.6,88,412.5,88z"/>
	<path fill="#B6B6B6" d="M408.3,89.8c-0.2-0.1-0.3-0.2-0.3-0.5c0.1-0.5,0.3-0.9,0.8-1.1c0.2,0,0.3,0,0.4,0.2
		c0.1,0.2-0.1,0.7-0.5,0.9c-0.1,0-0.2,0.1-0.3,0c-0.1-0.1-0.2-0.2-0.2-0.2c-0.1,0.1-0.1,0.3,0,0.4c0.3,0.3,0.9-0.1,0.9-0.1
		c0.1,0.1,0.1,0.1,0.1,0.2C409,89.7,408.6,89.9,408.3,89.8z M408.3,88.9c0.1,0.1,0.1,0.1,0.2,0.1c0.2,0,0.6-0.6,0.4-0.6
		C408.7,88.3,408.4,88.7,408.3,88.9z"/>
	<path fill="#B6B6B6" d="M412,89.9c-0.1,0.1-0.1,0.1-0.1,0c0,0-0.1-0.1-0.1-0.1c0.1-0.3,0.1-0.7,0-1.2c0-0.1-0.1-0.2-0.2-0.2
		c-0.2,0-0.3,0.2-0.3,0.3c-0.1,0.2-0.1,0.5-0.1,0.8c0,0.1,0.1,0.2-0.1,0.3c-0.2-0.1-0.2-0.2-0.2-0.3c0-0.6-0.1-0.8,0-1.1
		c0.1-0.1,0.1-0.1,0.1,0c0.1,0.1,0.1,0.2,0.1,0.2c0.2-0.5,0.7-0.6,0.8-0.2C412.2,89,412.2,89.5,412,89.9z"/>
	<path fill="#B6B6B6" d="M414.2,89.9c-0.1,0.1-0.1,0.1-0.1,0c0,0-0.1-0.1-0.1-0.1c0.1-0.3,0.1-0.7,0-1.2c0-0.1-0.1-0.2-0.2-0.2
		c-0.2,0-0.3,0.2-0.3,0.3c-0.1,0.2-0.1,0.5-0.1,0.8c0,0.1,0.1,0.2-0.1,0.3c-0.2-0.1-0.2-0.2-0.2-0.3c0-0.6-0.1-0.8,0-1.1
		c0.1-0.1,0.1-0.1,0.1,0c0.1,0.1,0.1,0.2,0.1,0.2c0.2-0.5,0.7-0.6,0.8-0.2C414.4,89.1,414.4,89.5,414.2,89.9z"/>
	<path fill="#B6B6B6" d="M410.4,89.8c-0.1,0-0.1-0.1-0.1-0.2c-0.1-0.1-0.1-0.2-0.1-0.2c-0.2,0.2-0.5,0.5-0.8,0.3
		c-0.3-0.4,0.1-1.2,0.2-1.3c0.3-0.3,0.7-0.2,0.9,0c-0.1,0.4-0.2,0.8,0,1.2c0,0.1,0.1,0.1,0.1,0.1S410.5,89.8,410.4,89.8z
		 M409.6,88.8c-0.1,0.2-0.2,0.6-0.1,0.8c0.1,0.1,0.5-0.1,0.6-0.4c0.1-0.2,0.1-0.5,0.1-0.7C410,88.2,409.8,88.5,409.6,88.8z"/>
	<path fill="#B6B6B6" d="M382.1,93c-0.1,0-0.1-0.1-0.1-0.2c-0.1-0.1-0.1-0.2-0.1-0.2c-0.2,0.2-0.5,0.5-0.8,0.3
		c-0.3-0.4,0.1-1.2,0.2-1.3c0.3-0.3,0.7-0.2,0.9,0c-0.1,0.4-0.2,0.8,0,1.2c0,0.1,0.1,0.1,0.1,0.1C382.2,93,382.1,93,382.1,93z
		 M381.3,92.1c-0.1,0.2-0.2,0.6-0.1,0.8c0.1,0.1,0.5-0.1,0.6-0.4c0.1-0.2,0.1-0.5,0.1-0.7C381.6,91.5,381.4,91.8,381.3,92.1z"/>
	<path fill="#B6B6B6" d="M383.5,93c-0.1,0.1-0.1,0.1-0.1,0c0,0-0.1-0.1-0.1-0.1c0.1-0.3,0.1-0.7,0-1.2c0-0.1-0.1-0.2-0.2-0.2
		c-0.2,0-0.3,0.2-0.3,0.3c-0.1,0.2-0.1,0.5-0.1,0.8c0,0.1,0.1,0.2-0.1,0.3c-0.2-0.1-0.2-0.2-0.2-0.3c0-0.6-0.1-0.8,0-1.1
		c0.1-0.1,0.1-0.1,0.1,0c0.1,0.1,0.1,0.2,0.1,0.2c0.2-0.5,0.7-0.6,0.8-0.2C383.6,92.1,383.6,92.6,383.5,93z"/>
	<path fill="#B6B6B6" d="M385.2,92.1c0,0.2,0.1,0.5,0.1,0.6c0,0,0,0.1,0,0.1c-0.1,0.1-0.1,0.1-0.1,0c-0.2-0.1-0.1-0.5-0.1-0.7
		c-0.1,0.3-0.3,0.6-0.7,0.7c-0.2,0.1-0.4-0.1-0.5-0.2c0-0.6,0.3-1,0.8-1.4c0.1-0.1,0.2-0.1,0.3,0.1c0.1-0.2,0-0.4,0.1-0.6
		c0.1,0,0.2,0.1,0.2,0.1C385.1,91.1,385.2,91.6,385.2,92.1z M385,91.7c0-0.1-0.1-0.1-0.1-0.1c-0.1-0.1-0.1-0.1-0.2-0.1
		c-0.4,0.3-0.9,1.1-0.6,1.3c0.1,0.1,0.3-0.1,0.5-0.3c0.1-0.2,0.2-0.4,0.3-0.4C385,91.9,385,91.8,385,91.7z"/>
	<path fill="#B6B6B6" d="M388.3,93c-0.5-0.1-1-0.3-1.4-0.8c-0.1-0.3,0.3,0,0.4-0.2c0.2-0.1,0.4-0.2,0.5-0.5c0.1-0.3-0.2-0.5-0.5-0.6
		c-0.1-0.1-0.3-0.1-0.4-0.1c-0.3,0.6-0.2,1.4-0.2,2c-0.1,0.1-0.1,0-0.2-0.1c0-0.6-0.1-1.1,0.1-2c0.1-0.3,0.2-0.2,0.3-0.3
		c0.4,0,0.8,0.2,0.9,0.6c0.1,0.2,0.1,0.5,0,0.6c-0.1,0.2-0.3,0.3-0.5,0.3c0.2,0.2,0.4,0.3,1,0.6C388.4,93,388.3,93,388.3,93z"/>
	<path fill="#B6B6B6" d="M388.7,93c-0.2-0.1-0.3-0.2-0.3-0.5c0.1-0.5,0.3-0.9,0.8-1.1c0.2,0,0.3,0,0.4,0.2c0.1,0.2-0.1,0.7-0.5,0.9
		c-0.1,0-0.2,0.1-0.3,0c-0.1-0.1-0.2-0.2-0.2-0.2c-0.1,0.1-0.1,0.3,0,0.4c0.3,0.3,0.9-0.1,0.9-0.1c0.1,0.1,0.1,0.1,0.1,0.2
		C389.4,92.9,389,93.1,388.7,93z M388.7,92.2c0.1,0.1,0.1,0.1,0.2,0.1c0.2,0,0.6-0.6,0.4-0.6C389.1,91.5,388.8,91.9,388.7,92.2z"/>
	<path fill="#B6B6B6" d="M390.8,91.7c-0.2,0-0.7,0.1-0.8,0.3c0,0.1,0.3,0.1,0.3,0.1c0.1,0,0.4,0.1,0.5,0.2c0.1,0.2-0.1,0.4-0.2,0.5
		c-0.2,0.1-0.5,0.2-0.8,0.2c-0.1,0-0.1-0.1-0.1-0.1c0-0.1,0-0.1,0.1-0.1c0.3,0,0.9-0.1,0.9-0.3c0-0.1-0.2-0.1-0.3-0.1
		c-0.1,0-0.5,0-0.5-0.2c-0.1-0.2,0.1-0.3,0.2-0.5c0.2-0.2,0.5-0.2,0.8-0.3c0,0,0.1,0.1,0.1,0.1C391,91.6,390.9,91.7,390.8,91.7z"/>
	<path fill="#B6B6B6" d="M391.5,91.7c-0.1,0.4,0.1,0.8,0.1,1.3c-0.1,0.1-0.1,0.1-0.2,0c-0.1-0.1-0.1-0.2-0.1-0.3l-0.1-0.9
		c-0.1-0.1-0.4,0.2-0.5-0.1c0.2-0.2,0.4-0.1,0.4-0.1V91c0.1,0,0.2,0,0.2,0.1c0,0.2-0.1,0.3,0,0.5c0.2,0,0.5-0.1,0.6,0.1
		C392,91.6,391.7,91.7,391.5,91.7z"/>
	<path fill="#B6B6B6" d="M392.9,92.8c-0.2,0.2-0.4,0.3-0.6,0.2c-0.4-0.3-0.1-1,0.1-1.4c0.2-0.5,0.7-0.1,0.8,0.2
		C393.2,92.2,393.2,92.5,392.9,92.8z M392.6,91.7c-0.2,0.3-0.5,0.7-0.2,1.1c0.2,0.1,0.3-0.1,0.4-0.2c0.2-0.2,0.2-0.5,0.2-0.8
		C392.9,91.7,392.8,91.5,392.6,91.7z"/>
	<path fill="#B6B6B6" d="M394.3,91.5c-0.1,0-0.1,0-0.2,0.1c-0.5,0.3-0.3,1-0.5,1.4c-0.1,0-0.1-0.2-0.2-0.3c0.1-0.3-0.1-0.9-0.1-1.2
		c0-0.1,0.1-0.1,0.1-0.1c0.1,0,0.1,0.5,0.1,0.6c0.1-0.3,0.3-0.6,0.5-0.7c0.2-0.1,0.3,0,0.3,0.1C394.4,91.5,394.4,91.5,394.3,91.5z"
		/>
	<path fill="#B6B6B6" d="M395.5,93c-0.1,0-0.1-0.1-0.1-0.2c-0.1-0.1-0.1-0.2-0.1-0.2c-0.2,0.2-0.5,0.5-0.8,0.3
		c-0.3-0.4,0.1-1.2,0.2-1.3c0.3-0.3,0.7-0.2,0.9,0c-0.1,0.4-0.2,0.8,0,1.2c0,0.1,0.1,0.1,0.1,0.1C395.7,93,395.6,93,395.5,93z
		 M394.7,92.1c-0.1,0.2-0.2,0.6-0.1,0.8c0.1,0.1,0.5-0.1,0.6-0.4c0.1-0.2,0.1-0.5,0.1-0.7C395.1,91.5,394.8,91.8,394.7,92.1z"/>
	<path fill="#B6B6B6" d="M396.3,91.7c-0.1,0.4,0.1,0.8,0.1,1.3c-0.1,0.1-0.1,0.1-0.2,0c-0.1-0.1-0.1-0.2-0.1-0.3l-0.1-0.9
		c-0.1-0.1-0.4,0.2-0.5-0.1c0.2-0.2,0.4-0.1,0.4-0.1V91c0.1,0,0.2,0,0.2,0.1c0,0.2-0.1,0.3,0,0.5c0.2,0,0.5-0.1,0.6,0.1
		C396.7,91.6,396.5,91.7,396.3,91.7z"/>
	<path fill="#B6B6B6" d="M397.1,92.9c-0.2,0.1-0.2-0.1-0.2-0.3v-1.1c0.1-0.1,0.2-0.1,0.2,0.1C397.1,92,397.2,92.5,397.1,92.9z
		 M397,91l-0.1-0.2c0.2-0.1,0.2,0.1,0.3,0.1C397.2,91.1,397,91.1,397,91z"/>
	<path fill="#B6B6B6" d="M398.3,92.8c-0.2,0.2-0.4,0.3-0.6,0.2c-0.4-0.3-0.1-1,0.1-1.4c0.2-0.5,0.7-0.1,0.8,0.2
		C398.6,92.2,398.5,92.5,398.3,92.8z M398,91.7c-0.2,0.3-0.5,0.7-0.2,1.1c0.2,0.1,0.3-0.1,0.4-0.2c0.2-0.2,0.2-0.5,0.2-0.8
		C398.3,91.7,398.1,91.5,398,91.7z"/>
	<path fill="#B6B6B6" d="M399.9,93c-0.1,0.1-0.1,0.1-0.1,0c0,0-0.1-0.1-0.1-0.1c0.1-0.3,0.1-0.7,0-1.2c0-0.1-0.1-0.2-0.2-0.2
		c-0.2,0-0.3,0.2-0.3,0.3c-0.1,0.2-0.1,0.5-0.1,0.8c0,0.1,0.1,0.2-0.1,0.3c-0.2-0.1-0.2-0.2-0.2-0.3c0-0.6-0.1-0.8,0-1.1
		c0.1-0.1,0.1-0.1,0.1,0c0.1,0.1,0.1,0.2,0.1,0.2c0.2-0.5,0.7-0.6,0.8-0.2C400,92.1,400,92.6,399.9,93z"/>
	<path fill="#B6B6B6" d="M402.4,93C402.4,93,402.4,93,402.4,93c-0.1-0.2-0.1-0.5-0.2-0.8c-0.3,0.1-0.9-0.1-0.9,0.5
		c0,0.1-0.1,0.1-0.1,0.2c-0.1,0.1-0.1-0.1-0.1-0.2c0.1-0.7,0.7-1.2,0.9-1.9h0.1c0.1,0.1,0.1,0.2,0.1,0.2c0.1,0.6,0.3,1.2,0.4,1.8
		C402.5,93,402.5,93,402.4,93z M402,91.4l-0.5,0.8l0.7-0.1L402,91.4z"/>
	<path fill="#B6B6B6" d="M403.7,91.7c-0.2,0-0.7,0.1-0.8,0.3c0,0.1,0.3,0.1,0.3,0.1c0.1,0,0.4,0.1,0.5,0.2c0.1,0.2-0.1,0.4-0.2,0.5
		c-0.2,0.1-0.5,0.2-0.8,0.2c-0.1,0-0.1-0.1-0.1-0.1c0-0.1,0-0.1,0.1-0.1c0.3,0,0.9-0.1,0.9-0.3c0-0.1-0.2-0.1-0.3-0.1
		c-0.1,0-0.5,0-0.5-0.2c-0.1-0.2,0.1-0.3,0.2-0.5c0.2-0.2,0.5-0.2,0.8-0.3c0,0,0.1,0.1,0.1,0.1C403.9,91.6,403.8,91.7,403.7,91.7z"
		/>
	<path fill="#B6B6B6" d="M405,91.7c-0.2,0-0.7,0.1-0.8,0.3c0,0.1,0.3,0.1,0.3,0.1c0.1,0,0.4,0.1,0.5,0.2c0.1,0.2-0.1,0.4-0.2,0.5
		c-0.2,0.1-0.5,0.2-0.8,0.2c-0.1,0-0.1-0.1-0.1-0.1c0-0.1,0-0.1,0.1-0.1c0.3,0,0.9-0.1,0.9-0.3c0-0.1-0.2-0.1-0.3-0.1
		c-0.1,0-0.5,0-0.5-0.2c-0.1-0.2,0.1-0.3,0.2-0.5c0.2-0.2,0.5-0.2,0.8-0.3c0,0,0.1,0.1,0.1,0.1C405.2,91.6,405.1,91.7,405,91.7z"/>
	<path fill="#B6B6B6" d="M406.2,92.8c-0.2,0.2-0.4,0.3-0.6,0.2c-0.4-0.3-0.1-1,0.1-1.4c0.2-0.5,0.7-0.1,0.8,0.2
		C406.5,92.2,406.4,92.5,406.2,92.8z M405.9,91.7c-0.2,0.3-0.5,0.7-0.2,1.1c0.2,0.1,0.3-0.1,0.4-0.2c0.2-0.2,0.2-0.5,0.2-0.8
		C406.2,91.7,406,91.5,405.9,91.7z"/>
	<path fill="#B6B6B6" d="M407.3,92.9c-0.1,0.1-0.3,0.1-0.4,0c-0.2-0.2-0.2-0.5-0.1-0.7c0.2-0.3,0.2-0.8,0.7-0.9
		c0.1,0,0.2,0.1,0.2,0.2c0,0.1-0.1,0.1-0.2,0.1v-0.2c-0.3,0.2-0.5,0.6-0.6,1c0,0.1,0,0.2,0.2,0.2c0.3-0.1,0.5-0.3,0.6-0.6l0.2,0.1
		C407.8,92.6,407.5,92.8,407.3,92.9z"/>
	<path fill="#B6B6B6" d="M408.2,92.9c-0.2,0.1-0.2-0.1-0.2-0.3v-1.1c0.1-0.1,0.2-0.1,0.2,0.1C408.2,92,408.2,92.5,408.2,92.9z
		 M408.1,91l-0.1-0.2c0.2-0.1,0.2,0.1,0.3,0.1C408.3,91.1,408.1,91.1,408.1,91z"/>
	<path fill="#B6B6B6" d="M409.8,93c-0.1,0-0.1-0.1-0.1-0.2c-0.1-0.1-0.1-0.2-0.1-0.2c-0.2,0.2-0.5,0.5-0.8,0.3
		c-0.3-0.4,0.1-1.2,0.2-1.3c0.3-0.3,0.7-0.2,0.9,0c-0.1,0.4-0.2,0.8,0,1.2c0,0.1,0.1,0.1,0.1,0.1S409.8,93,409.8,93z M408.9,92.1
		c-0.1,0.2-0.2,0.6-0.1,0.8c0.1,0.1,0.5-0.1,0.6-0.4c0.1-0.2,0.1-0.5,0.1-0.7C409.3,91.5,409.1,91.8,408.9,92.1z"/>
	<path fill="#B6B6B6" d="M410.5,91.7c-0.1,0.4,0.1,0.8,0.1,1.3c-0.1,0.1-0.1,0.1-0.2,0c-0.1-0.1-0.1-0.2-0.1-0.3l-0.1-0.9
		c-0.1-0.1-0.4,0.2-0.5-0.1c0.2-0.2,0.4-0.1,0.4-0.1V91c0.1,0,0.2,0,0.2,0.1c0,0.2-0.1,0.3,0,0.5c0.2,0,0.5-0.1,0.6,0.1
		C410.9,91.6,410.7,91.7,410.5,91.7z"/>
	<path fill="#B6B6B6" d="M411.3,92.9c-0.2,0.1-0.2-0.1-0.2-0.3v-1.1c0.1-0.1,0.2-0.1,0.2,0.1C411.3,92,411.3,92.5,411.3,92.9z
		 M411.1,91l-0.1-0.2c0.2-0.1,0.2,0.1,0.3,0.1C411.4,91.1,411.2,91.1,411.1,91z"/>
	<path fill="#B6B6B6" d="M412.5,92.8c-0.2,0.2-0.4,0.3-0.6,0.2c-0.4-0.3-0.1-1,0.1-1.4c0.2-0.5,0.7-0.1,0.8,0.2
		C412.8,92.2,412.8,92.5,412.5,92.8z M412.2,91.7c-0.2,0.3-0.5,0.7-0.2,1.1c0.2,0.1,0.3-0.1,0.4-0.2c0.2-0.2,0.2-0.5,0.2-0.8
		C412.5,91.7,412.4,91.5,412.2,91.7z"/>
	<path fill="#B6B6B6" d="M414.1,93C414,93,414,93,414,93c0,0-0.1-0.1-0.1-0.1c0.1-0.3,0.1-0.7,0-1.2c0-0.1-0.1-0.2-0.2-0.2
		c-0.2,0-0.3,0.2-0.3,0.3c-0.1,0.2-0.1,0.5-0.1,0.8c0,0.1,0.1,0.2-0.1,0.3c-0.2-0.1-0.2-0.2-0.2-0.3c0-0.6-0.1-0.8,0-1.1
		c0.1-0.1,0.1-0.1,0.1,0c0.1,0.1,0.1,0.2,0.1,0.2c0.2-0.5,0.7-0.6,0.8-0.2C414.3,92.1,414.3,92.6,414.1,93z"/>
	<path fill="#B6B6B6" d="M415.6,88.5c0-0.1-0.1-0.1-0.1-0.1c-0.3-0.1-0.6-0.1-0.9,0.2c-0.2,0.2-0.2,0.5-0.1,0.7
		c0.1,0.2,0.3,0.4,0.6,0.6l0,0l0,0c0.1,0,0.1,0.1,0.2,0.1h0.1c0,0,0-0.1,0.1-0.1c0,0.1,0,0.2,0,0.3c0,0.1,0,0.1,0,0.1
		c0,0,0,0.1-0.1,0.1c-0.1,0.4-0.6,0.3-0.6,0.2c-0.1-0.1-0.2-0.2-0.2-0.2s-0.5,0,0.1,0.3c0.5,0.3,1-0.2,1-0.2l0,0v-0.1
		C415.8,89.8,415.6,89.1,415.6,88.5z M414.7,88.8c0.1-0.2,0.3-0.4,0.6-0.3c0.1,0.1,0.1,0.5,0.1,0.9c-0.1,0.3-0.4,0.1-0.4,0.1l0,0
		C414.8,89.3,414.7,89.1,414.7,88.8z"/>
</g>
</svg>
