<?xml version="1.0" encoding="UTF-8"?>
<svg width="109px" height="30px" viewBox="0 0 109 30" version="1.1" xmlns="http://www.w3.org/2000/svg" xmlns:xlink="http://www.w3.org/1999/xlink">
    <!-- Generator: Sketch 48.1 (47250) - http://www.bohemiancoding.com/sketch -->
    <title>Page 1</title>
    <desc>Created with Sketch.</desc>
    <defs>
        <polygon id="path-1" points="0 30 109 30 109 0 0 0"></polygon>
    </defs>
    <g id="Assets" stroke="none" stroke-width="1" fill="none" fill-rule="evenodd" transform="translate(-425.000000, -831.000000)">
        <g id="Page-1" transform="translate(425.000000, 831.000000)">
            <path d="M44.5933364,5 C44.4847102,5 44.3671839,4.97785387 44.2859425,4.88926936 L40.7955272,1.20221833 L40.7955272,4.96315182 L40,4.96315182 L40,0.332005806 C40,0.147578814 40.1894112,0 40.4062072,0 C40.5328617,0 40.6414879,0.0295902036 40.7229576,0.117988611 L44.2044728,3.79833997 L44.2044728,0.0517363308 L45,0.0517363308 L45,4.67562437 C45,4.86749544 44.8105888,5 44.5933364,5" id="Fill-1" fill="#B6B5B6"></path>
            <path d="M48.5043086,0.98091417 L47.5363151,3.20184484 L49.4716865,3.20184484 L48.5043086,0.98091417 Z M50.2519491,5 L49.6908084,3.72979864 L47.3093968,3.72979864 L46.7484612,5 L46,5 L48.1873205,0.193295587 C48.2439475,0.0669316435 48.366229,0 48.5043086,0 C48.6427985,0 48.756668,0.0669316435 48.813295,0.193295587 L51,5 L50.2519491,5 Z" id="Fill-3" fill="#B6B5B6"></path>
            <polygon id="Fill-5" fill="#B6B5B6" points="52.3373753 0.600772991 52.3373753 5 51.6616883 5 51.6616883 0.600772991 50 0.600772991 50 0 54 0 54 0.600772991"></polygon>
            <mask id="mask-2" fill="white">
                <use xlink:href="#path-1"></use>
            </mask>
            <g id="Clip-8"></g>
            <polygon id="Fill-7" fill="#B6B5B6" mask="url(#mask-2)" points="55 5 56 5 56 0 55 0"></polygon>
            <path d="M59.5010326,0.589023987 C58.4218392,0.589023987 57.6777815,1.38981743 57.6777815,2.49641847 C57.6777815,3.60963156 58.4218392,4.41060868 59.5010326,4.41060868 C60.578724,4.41060868 61.3227817,3.60963156 61.3227817,2.49641847 C61.3227817,1.38981743 60.578724,0.589023987 59.5010326,0.589023987 M59.5010326,5 C58.0420187,5 57,3.90809242 57,2.49641847 C57,1.09154024 58.0420187,0 59.5010326,0 C60.9666179,0 62,1.09154024 62,2.49641847 C62,3.90809242 60.9666179,5 59.5010326,5" id="Fill-9" fill="#B6B5B6" mask="url(#mask-2)"></path>
            <path d="M68.5928614,5 C68.4851431,5 68.3685244,4.97785387 68.2854535,4.88926936 L64.7957917,1.20221833 L64.7957917,4.96315182 L64,4.96315182 L64,0.332005806 C64,0.147578814 64.1898763,0 64.4071386,0 C64.5331142,0 64.6424301,0.0295902036 64.7232188,0.117988611 L68.2046647,3.79833997 L68.2046647,0.0517363308 L69,0.0517363308 L69,4.67562437 C69,4.86749544 68.8103519,5 68.5928614,5" id="Fill-10" fill="#B6B5B6" mask="url(#mask-2)"></path>
            <path d="M71.5031803,0.98091417 L70.5363782,3.20184484 L72.4714186,3.20184484 L71.5031803,0.98091417 Z M73.2521236,5 L72.6901391,3.72979864 L70.3084246,3.72979864 L69.7468505,5 L69,5 L71.1865895,0.193295587 C71.2428085,0.0669316435 71.3663261,0 71.5031803,0 C71.6424966,0 71.7559604,0.0669316435 71.8132053,0.193295587 L74,5 L73.2521236,5 Z" id="Fill-11" fill="#B6B5B6" mask="url(#mask-2)"></path>
            <path d="M75.2981948,5 C75.1327167,5 75,4.84218105 75,4.6623849 L75,0 L75.6030756,0 L75.6030756,4.39202759 L78,4.39202759 L78,5 L75.2981948,5 Z" id="Fill-12" fill="#B6B5B6" mask="url(#mask-2)"></path>
            <path d="M42.5037958,8.98072669 L41.5363782,11.2024073 L43.4714186,11.2024073 L42.5037958,8.98072669 Z M44.2521236,13 L43.6909598,11.7294237 L41.3086298,11.7294237 L40.7478764,13 L40,13 L42.1867947,8.19329559 C42.2440396,8.06674416 42.3659157,8 42.5037958,8 C42.6422914,8 42.7559604,8.06674416 42.8130001,8.19329559 L45,13 L44.2521236,13 Z" id="Fill-13" fill="#B6B5B6" mask="url(#mask-2)"></path>
            <path d="M47.0229378,13 C46.3539997,13 45.65435,12.8684984 45,12.635432 L45.1593167,12.1121804 C45.7606891,12.2940053 46.4144633,12.4255069 47.0229378,12.4255069 C47.867508,12.4255069 48.308796,12.1410153 48.308796,11.7410006 C48.308796,11.3769835 47.9663611,11.194975 46.7874178,10.6708052 C45.6078987,10.1471863 45.1447286,9.81273876 45.1447286,9.15725096 C45.1447286,8.33518219 45.8142425,8 47.0759154,8 C47.6010845,8 48.4072652,8.10229944 48.8710111,8.23269909 L48.764864,8.77156186 C48.2548587,8.65512048 47.6166323,8.57486042 47.092039,8.57486042 C46.2015932,8.57486042 45.8365085,8.73519689 45.8365085,9.13539524 C45.8365085,9.52824713 46.1027401,9.6957464 47.3500168,10.241772 C48.6662028,10.8166324 49,11.1071848 49,11.7040846 C49,12.5707831 48.1333557,13 47.0229378,13" id="Fill-14" fill="#B6B5B6" mask="url(#mask-2)"></path>
            <path d="M52.0232223,13 C51.3543806,13 50.6542558,12.8684984 50,12.635432 L50.1600614,12.1121804 C50.7607715,12.2940053 51.4154112,12.4255069 52.0232223,12.4255069 C52.8667114,12.4255069 53.3088955,12.1410153 53.3088955,11.7410006 C53.3088955,11.3769835 52.9665099,11.194975 51.7871605,10.6708052 C50.608195,10.1471863 50.1452836,9.81273876 50.1452836,9.15725096 C50.1452836,8.33518219 50.8141253,8 52.0765761,8 C52.6012859,8 53.4077344,8.10229944 53.8708377,8.23269909 L53.7648978,8.77156186 C53.2545821,8.65512048 52.6168314,8.57486042 52.0917378,8.57486042 C51.201996,8.57486042 50.8363881,8.73519689 50.8363881,9.13539524 C50.8363881,9.52824713 51.1031571,9.6957464 52.3502543,10.241772 C53.6650993,10.8166324 54,11.1071848 54,11.7040846 C54,12.5707831 53.1334805,13 52.0232223,13" id="Fill-15" fill="#B6B5B6" mask="url(#mask-2)"></path>
            <path d="M57.5003755,8.58936967 C56.4218926,8.58936967 55.6776192,9.38958272 55.6776192,10.4959594 C55.6776192,11.6096826 56.4218926,12.4104467 57.5003755,12.4104467 C58.5786707,12.4104467 59.3223808,11.6096826 59.3223808,10.4959594 C59.3223808,9.38958272 58.5786707,8.58936967 57.5003755,8.58936967 M57.5003755,13 C56.0420578,13 55,11.9083162 55,10.4959594 C55,9.09186747 56.0420578,8 57.5003755,8 C58.9660158,8 60,9.09186747 60,10.4959594 C60,11.9083162 58.9660158,13 57.5003755,13" id="Fill-16" fill="#B6B5B6" mask="url(#mask-2)"></path>
            <path d="M65.8211449,8.74235968 C65.4064642,8.63326477 64.8308593,8.58220688 64.3623859,8.58220688 C62.9240547,8.58220688 61.8273185,9.33907582 61.8273185,10.5033059 C61.8273185,11.667536 62.9052159,12.4172421 64.3623859,12.4172421 C64.8224613,12.4172421 65.3528985,12.3593888 65.802533,12.2429474 L65.991602,12.77428 C65.5142766,12.9270864 64.8755731,13 64.3004222,13 C62.4469563,13 61,11.974067 61,10.5033059 C61,9.03401411 62.4113214,8 64.3004222,8 C64.9028099,8 65.5142766,8.06575081 66,8.21102703 L65.8211449,8.74235968 Z" id="Fill-17" fill="#B6B5B6" mask="url(#mask-2)"></path>
            <polygon id="Fill-18" fill="#B6B5B6" mask="url(#mask-2)" points="67 13 68 13 68 8 67 8"></polygon>
            <path d="M71.5045145,8.98072669 L70.537183,11.2024073 L72.4714356,11.2024073 L71.5045145,8.98072669 Z M73.2530575,13 L72.6914143,11.7294237 L70.3081753,11.7294237 L69.7477633,13 L69,13 L71.1862431,8.19329559 C71.243495,8.06674416 71.3664122,8 71.5045145,8 C71.6424116,8 71.7556842,8.06674416 71.8129361,8.19329559 L74,13 L73.2530575,13 Z" id="Fill-19" fill="#B6B5B6" mask="url(#mask-2)"></path>
            <polygon id="Fill-20" fill="#B6B5B6" mask="url(#mask-2)" points="76.3372196 8.60058353 76.3372196 13 75.6620312 13 75.6620312 8.60058353 74 8.60058353 74 8 78 8 78 8.60058353"></polygon>
            <polygon id="Fill-21" fill="#B6B5B6" mask="url(#mask-2)" points="79 13 80 13 80 8 79 8"></polygon>
            <path d="M82.4993427,8.58936967 C81.4214085,8.58936967 80.6769953,9.38958272 80.6769953,10.4959594 C80.6769953,11.6096826 81.4214085,12.4104467 82.4993427,12.4104467 C83.5789671,12.4104467 84.3230047,11.6096826 84.3230047,10.4959594 C84.3230047,9.38958272 83.5789671,8.58936967 82.4993427,8.58936967 M82.4993427,13 C81.0418779,13 80,11.9083162 80,10.4959594 C80,9.09186747 81.0418779,8 82.4993427,8 C83.9661972,8 85,9.09186747 85,10.4959594 C85,11.9083162 83.9661972,13 82.4993427,13" id="Fill-22" fill="#B6B5B6" mask="url(#mask-2)"></path>
            <path d="M91.5929357,13 C91.4845525,13 91.3670424,12.9782253 91.2858121,12.8900097 L87.7949619,9.20300752 L87.7949619,12.9635227 L87,12.9635227 L87,8.33164595 C87,8.14795652 87.1893853,8 87.4070643,8 C87.5330169,8 87.6427691,8.02996352 87.7224022,8.11855133 L91.2050381,11.7982952 L91.2050381,8.05192437 L92,8.05192437 L92,12.6752401 C92,12.8674905 91.8106147,13 91.5929357,13" id="Fill-23" fill="#B6B5B6" mask="url(#mask-2)"></path>
            <path d="M97.5001877,8.58936967 C96.4211159,8.58936967 95.6769543,9.38958272 95.6769543,10.4959594 C95.6769543,11.6096826 96.4211159,12.4104467 97.5001877,12.4104467 C98.5790719,12.4104467 99.3226703,11.6096826 99.3226703,10.4959594 C99.3226703,9.38958272 98.5790719,8.58936967 97.5001877,8.58936967 M97.5001877,13 C96.0420891,13 95,11.9083162 95,10.4959594 C95,9.09186747 96.0420891,8 97.5001877,8 C98.9650447,8 100,9.09186747 100,10.4959594 C100,11.9083162 98.9650447,13 97.5001877,13" id="Fill-24" fill="#B6B5B6" mask="url(#mask-2)"></path>
            <path d="M101.771476,8.60058353 L101.771476,10.124209 L104.364302,10.124209 C104.55097,10.124209 104.703854,10.2594824 104.703854,10.4248797 C104.703854,10.5898981 104.55097,10.7172142 104.364302,10.7172142 L101.771476,10.7172142 L101.771476,13 L101,13 L101,8.33780455 C101,8.15762949 101.17897,8 101.391084,8 L105,8 L105,8.60058353 L101.771476,8.60058353 Z" id="Fill-25" fill="#B6B5B6" mask="url(#mask-2)"></path>
            <path d="M40.6592776,21 C40.2907472,21 40,20.7076655 40,20.3547043 L40,16 L41.3415141,16 L41.3415141,19.8973514 L44,19.8973514 L44,21 L40.6592776,21 Z" id="Fill-26" fill="#B6B5B6" mask="url(#mask-2)"></path>
            <path d="M47.5036998,17.679166 L46.9546162,19.15078 L48.0524039,19.15078 L47.5036998,17.679166 Z M48.743976,21 L48.3982848,20.0863582 L46.6017152,20.0863582 L46.2554548,21 L45,21 L46.9401966,16.3639193 C47.0375289,16.1340558 47.2553409,16 47.5036998,16 C47.7520586,16 47.9620916,16.1340558 48.0596137,16.3639193 L50,21 L48.743976,21 Z" id="Fill-27" fill="#B6B5B6" mask="url(#mask-2)"></path>
            <path d="M54.4126247,20.991861 C54.1907318,21.0221485 53.9690391,20.9704926 53.7940081,20.7932271 L51.3421717,18.2384869 L51.3421717,20.9552559 L50,20.9552559 L50,16.6338075 C50,16.2870808 50.31061,16 50.683302,16 C50.8737534,16 51.032563,16.0444093 51.1995835,16.2205598 C51.8967036,16.9574934 52.5563744,17.6423994 53.6590299,18.8496252 L53.6590299,16.0514701 L55,16.0514701 L55,20.3669726 C55,20.683226 54.7466656,20.9480092 54.4126247,20.991861" id="Fill-28" fill="#B6B5B6" mask="url(#mask-2)"></path>
            <path d="M58.6606977,17.141152 L58.4264347,17.141152 L58.4264347,19.859227 L58.6606977,19.859227 C59.6959215,19.859227 60.5560799,19.4768852 60.5560799,18.4998105 C60.5560799,17.52482 59.6959215,17.141152 58.6606977,17.141152 M58.4182186,21 L57.70932,21 C57.3172664,21 57,20.7076544 57,20.3546798 L57,16.6460781 C57,16.2927245 57.3172664,16 57.70932,16 L58.3099351,16 C60.6567793,16 62,17.141152 62,18.4998105 C62,19.859227 60.7644308,21 58.4182186,21" id="Fill-29" fill="#B6B5B6" mask="url(#mask-2)"></path>
            <path d="M65.4000973,21 C64.6282822,21 63.7353461,20.8471544 63,20.6364405 L63.2709752,19.6613146 C63.9462028,19.8069956 64.7600124,19.9521255 65.425294,19.9521255 C66.0823977,19.9521255 66.4950491,19.8576992 66.4950491,19.5955469 C66.4950491,19.3842819 65.9077889,19.217107 64.812395,18.8313187 C63.7254001,18.4523276 63.2188135,18.0738876 63.2188135,17.3605467 C63.2188135,16.4287761 63.9729467,16 65.6978163,16 C66.4150385,16 67.247414,16.0940589 67.8956768,16.2465371 L67.6768632,17.2516075 C66.9930156,17.1351361 66.3277341,17.0620201 65.7143931,17.0620201 C64.8919636,17.0620201 64.7082928,17.1492817 64.7082928,17.3239887 C64.7082928,17.5648308 65.0928742,17.666238 66.1343383,18.0520263 C67.3347184,18.4956828 68,18.6928023 68,19.4937723 C68,20.6873278 66.6252321,21 65.4000973,21" id="Fill-30" fill="#B6B5B6" mask="url(#mask-2)"></path>
            <path d="M71.2845586,21 C69.2872994,21 68,19.8869089 68,18.4956828 C68,17.1057427 69.2705009,16 71.2845586,16 C71.9503117,16 72.5550595,16.0868942 73,16.2254106 L72.67707,17.2587721 C72.3616551,17.171143 71.879802,17.1057427 71.4954246,17.1057427 C70.0494231,17.1057427 69.541267,17.7902414 69.541267,18.4956828 C69.541267,19.1948782 70.0494231,19.8940736 71.4954246,19.8940736 C71.879802,19.8940736 72.3616551,19.8284895 72.67707,19.7482088 L73,20.7529118 C72.5632377,20.9127384 71.8979267,21 71.2845586,21" id="Fill-31" fill="#B6B5B6" mask="url(#mask-2)"></path>
            <path d="M75.504553,17.679166 L74.9555319,19.15078 L76.053005,19.15078 L75.504553,17.679166 Z M76.7444984,21 L76.3986569,20.0863582 L74.6026711,20.0863582 L74.2566399,21 L73,21 L74.941114,16.3639193 C75.0382456,16.1340558 75.2566019,16 75.504553,16 C75.7526939,16 75.962703,16.1340558 76.0600243,16.3639193 L78,21 L76.7444984,21 Z" id="Fill-32" fill="#B6B5B6" mask="url(#mask-2)"></path>
            <path d="M81.8092728,17.0365276 L80.4515576,17.0365276 L80.4515576,18.3580008 L81.8092728,18.3580008 C82.2000686,18.3580008 82.5317307,18.0497518 82.5317307,17.6818233 C82.5317307,17.3140843 82.2000686,17.0365276 81.8092728,17.0365276 M82.0638043,19.3935811 L80.4515576,19.3935811 L80.4515576,21 L79,21 L79,16.6460536 C79,16.2929029 79.3222351,16 79.7207439,16 L82.0638043,16 C83.2023396,16 84,16.7580236 84,17.6818233 C84,18.6054337 83.2023396,19.3935811 82.0638043,19.3935811" id="Fill-33" fill="#B6B5B6" mask="url(#mask-2)"></path>
            <path d="M85.3677198,17.0890076 L85.3677198,17.9216778 L87.1438377,17.9216778 C87.4714848,17.9216778 87.7357424,18.1550908 87.7357424,18.4629609 C87.7357424,18.7782198 87.4714848,19.0032966 87.1438377,19.0032966 L85.3677198,19.0032966 L85.3677198,19.9113713 L87.9921268,19.9113713 L87.9921268,21 L84.6809327,21 C84.3038256,21 84,20.7076655 84,20.3545148 L84,16.6460536 C84,16.2929029 84.3038256,16 84.6809327,16 L88,16 L88,17.0890076 L85.3677198,17.0890076 Z" id="Fill-34" fill="#B6B5B6" mask="url(#mask-2)"></path>
            <path d="M42.8104113,26.0357373 L41.4520137,26.0357373 L41.4520137,27.3577898 L42.8104113,27.3577898 C43.2005141,27.3577898 43.5317052,27.0491151 43.5317052,26.6811309 C43.5317052,26.3129571 43.2005141,26.0357373 42.8104113,26.0357373 M43.06491,28.3931481 L41.4520137,28.3931481 L41.4520137,30 L40,30 L40,25.6452041 C40,25.2921893 40.3228363,25 40.7219366,25 L43.06491,25 C44.2026564,25 45,25.7577595 45,26.6811309 C45,27.6048812 44.2026564,28.3931481 43.06491,28.3931481" id="Fill-35" fill="#B6B5B6" mask="url(#mask-2)"></path>
            <path d="M48.7821066,26.0283473 L47.3402286,26.0283473 L47.3402286,27.2965854 L48.7821066,27.2965854 C49.1345173,27.2965854 49.4475735,27.0119756 49.4475735,26.6511919 C49.4475735,26.2833971 49.1345173,26.0283473 48.7821066,26.0283473 Z M49.4792153,30 L48.4999011,28.2881722 L47.3402286,28.2881722 L47.3402286,30 L46,30 L46,25.6453936 C46,25.2921893 46.2982241,25 46.666258,25 L49.0562038,25 C50.0513388,25 50.8040185,25.7281995 50.8040185,26.6511919 C50.8040185,27.2895744 50.4122533,27.822981 49.878891,28.1011483 L51,30 L49.4792153,30 Z" id="Fill-36" fill="#B6B5B6" mask="url(#mask-2)"></path>
            <path d="M53.5000912,26.1058257 C52.6908574,26.1058257 52.2353671,26.7097047 52.2353671,27.5031222 C52.2353671,28.2969071 52.6908574,28.8934396 53.5000912,28.8934396 C54.3095073,28.8934396 54.7644506,28.2969071 54.7644506,27.5031222 C54.7644506,26.7097047 54.3095073,26.1058257 53.5000912,26.1058257 M53.5000912,30 C52.0039751,30 51,28.879114 51,27.5031222 C51,26.1274978 52.0039751,25 53.5000912,25 C54.9958426,25 56,26.1274978 56,27.5031222 C56,28.879114 54.9958426,30 53.5000912,30" id="Fill-37" fill="#B6B5B6" mask="url(#mask-2)"></path>
            <path d="M59.3102548,26.0880358 L59.3102548,26.9215902 L61.1113475,26.9215902 C61.4252284,26.9215902 61.6783832,27.1546595 61.6783832,27.4623868 C61.6783832,27.7773146 61.4252284,28.0026149 61.1113475,28.0026149 L59.3102548,28.0026149 L59.3102548,30 L58,30 L58,25.6452041 C58,25.2921893 58.2912537,25 58.6509694,25 L62,25 L62,26.0880358 L59.3102548,26.0880358 Z" id="Fill-38" fill="#B6B5B6" mask="url(#mask-2)"></path>
            <path d="M64.3674644,26.0880358 L64.3674644,26.9215902 L66.1445017,26.9215902 C66.473089,26.9215902 66.7358376,27.1546595 66.7358376,27.4623868 C66.7358376,27.7773146 66.473089,28.0026149 66.1445017,28.0026149 L64.3674644,28.0026149 L64.3674644,28.9106378 L66.9925275,28.9106378 L66.9925275,30 L63.6793901,30 C63.3033424,30 63,29.7076212 63,29.3542275 L63,25.6452041 C63,25.2921893 63.3033424,25 63.6793901,25 L67,25 L67,26.0880358 L64.3674644,26.0880358 Z" id="Fill-39" fill="#B6B5B6" mask="url(#mask-2)"></path>
            <path d="M70.3989921,30 C69.6282822,30 68.7353461,29.8466483 68,29.6358127 L68.2714172,28.6607897 C68.9462028,28.8055096 69.7600124,28.9515152 70.425736,28.9515152 C71.0823977,28.9515152 71.4937229,28.8565657 71.4937229,28.594674 C71.4937229,28.3836547 70.908673,28.2161616 69.812395,27.8304867 C68.7262841,27.4521579 68.2188135,27.0740129 68.2188135,26.3612489 C68.2188135,25.4290174 68.9711785,25 70.6978163,25 C71.4152595,25 72.247414,25.0947658 72.8956768,25.2471993 L72.6768632,26.251607 C71.9936787,26.1353535 71.3279551,26.062259 70.7143931,26.062259 C69.8919636,26.062259 69.7085138,26.1496786 69.7085138,26.3239669 C69.7085138,26.5647383 70.0928742,26.6662994 71.1343383,27.0517906 C72.3347184,27.4964187 73,27.6927456 73,28.4932966 C73,29.6865014 71.6254531,30 70.3989921,30" id="Fill-40" fill="#B6B5B6" mask="url(#mask-2)"></path>
            <path d="M75.399452,30 C74.6288783,30 73.7354371,29.8466483 73,29.6358127 L73.2722532,28.6607897 C73.9458145,28.8055096 74.7594802,28.9515152 75.4264121,28.9515152 C76.0831786,28.9515152 76.4944312,28.8565657 76.4944312,28.594674 C76.4944312,28.3836547 75.9063909,28.2161616 74.8131795,27.8304867 C73.7272607,27.4521579 73.2189958,27.0740129 73.2189958,26.3612489 C73.2189958,25.4290174 73.9725537,25 75.6971184,25 C76.4155396,25 77.2464421,25.0947658 77.8950323,25.2471993 L77.6760364,26.251607 C76.9927517,26.1353535 76.3282507,26.062259 75.7152391,26.062259 C74.8914081,26.062259 74.7079908,26.1496786 74.7079908,26.3239669 C74.7079908,26.5647383 75.0922832,26.6662994 76.1348891,27.0517906 C77.334836,27.4964187 78,27.6927456 78,28.4932966 C78,29.6865014 76.6263591,30 75.399452,30" id="Fill-41" fill="#B6B5B6" mask="url(#mask-2)"></path>
            <polygon id="Fill-42" fill="#B6B5B6" mask="url(#mask-2)" points="79 30 80 30 80 25 79 25"></polygon>
            <path d="M83.5000912,26.1058257 C82.6909164,26.1058257 82.2345476,26.7097047 82.2345476,27.5031222 C82.2345476,28.2969071 82.6909164,28.8934396 83.5000912,28.8934396 C84.3092659,28.8934396 84.7649054,28.2969071 84.7649054,27.5031222 C84.7649054,26.7097047 84.3092659,26.1058257 83.5000912,26.1058257 M83.5000912,30 C82.0039018,30 81,28.879114 81,27.5031222 C81,26.1274978 82.0039018,25 83.5000912,25 C84.9950042,25 86,26.1274978 86,27.5031222 C86,28.879114 84.9950042,30 83.5000912,30" id="Fill-43" fill="#B6B5B6" mask="url(#mask-2)"></path>
            <path d="M92.4126952,29.9923048 C92.1904285,30.0216615 91.9675611,29.9694512 91.7931518,29.7936829 L89.3414097,27.2383526 L89.3414097,29.9547729 L88,29.9547729 L88,25.6330263 C88,25.2872494 88.3105727,25 88.6842211,25 C88.8734481,25 89.0324389,25.0442208 89.1992391,25.2212898 C89.8970765,25.9566928 90.5560673,26.6421151 91.6585903,27.8490827 L91.6585903,25.0520245 L93,25.0520245 L93,29.3659674 C93,29.6827593 92.7460953,29.9473408 92.4126952,29.9923048" id="Fill-44" fill="#B6B5B6" mask="url(#mask-2)"></path>
            <path d="M95.5040802,26.6790415 L94.9556306,28.1501481 L96.0532888,28.1501481 L95.5040802,26.6790415 Z M96.7440695,30 L96.3994383,29.0868864 L94.6013208,29.0868864 L94.2557407,30 L93,30 L94.9400691,25.363933 C95.0378032,25.1336858 95.2566137,25 95.5040802,25 C95.7523058,25 95.9631457,25.1336858 96.0608798,25.363933 L98,30 L96.7440695,30 Z" id="Fill-45" fill="#B6B5B6" mask="url(#mask-2)"></path>
            <path d="M99.6595429,30 C99.2902939,30 99,29.7076212 99,29.3544169 L99,25 L100.341644,25 L100.341644,28.8968052 L103,28.8968052 L103,30 L99.6595429,30 Z" id="Fill-46" fill="#B6B5B6" mask="url(#mask-2)"></path>
            <path d="M106.399894,30 C105.62932,30 104.735216,29.8466483 104,29.6358127 L104.27159,28.6607897 C104.945594,28.8055096 105.761027,28.9515152 106.42597,28.9515152 C107.082958,28.9515152 107.492884,28.8565657 107.492884,28.594674 C107.492884,28.3836547 106.907275,28.2161616 105.81318,27.8304867 C104.726598,27.4521579 104.218996,27.0740129 104.218996,26.3612489 C104.218996,25.4290174 104.972333,25 106.697118,25 C107.415761,25 108.246663,25.0947658 108.895032,25.2471993 L108.675815,26.251607 C107.99231,26.1353535 107.328472,26.062259 106.714134,26.062259 C105.891629,26.062259 105.707328,26.1496786 105.707328,26.3239669 C105.707328,26.5647383 106.093609,26.6662994 107.13511,27.0517906 C108.335057,27.4964187 109,27.6927456 109,28.4932966 C109,29.6865014 107.625917,30 106.399894,30" id="Fill-47" fill="#B6B5B6" mask="url(#mask-2)"></path>
            <path d="M17.0737321,14.999817 C17.073529,15.3586983 17.2063037,15.7175796 17.4722592,15.9923874 L22.4145639,21.081977 C22.9448506,21.6288736 23.8058559,21.6288736 24.3365487,21.081977 C24.601286,20.8086332 24.7338577,20.4507976 24.7338577,20.0923346 C24.7346698,19.7347081 24.6018951,19.376245 24.3365487,19.1020647 L20.3535108,14.999817 L24.3365487,10.8975693 C24.6018951,10.6242255 24.7346698,10.2655534 24.7338577,9.90750859 C24.7338577,9.54883641 24.601286,9.19100078 24.3365487,8.91765702 C23.8058559,8.37096951 22.9448506,8.37096951 22.4145639,8.91765702 L17.4722592,14.0074558 C17.2063037,14.2816361 17.073529,14.6403083 17.0737321,14.999817 M24.3365487,0.410329341 C23.8058559,-0.136776447 22.9448506,-0.136776447 22.4145639,0.410329341 L17.4722592,5.50054637 C16.9407543,6.04869785 16.9413634,6.93439854 17.4714471,7.48213175 C18.0023429,8.0279827 18.8635513,8.0279827 19.3930259,7.48171347 L24.3365487,2.39024161 C24.6018951,2.11627044 24.7346698,1.75801653 24.7338577,1.39997177 C24.7338577,1.04150872 24.601286,0.683882234 24.3365487,0.410329341 M24.3365487,29.5895138 C24.601286,29.3159609 24.7338577,28.9585436 24.7338577,28.5998714 C24.7346698,28.2418266 24.6018951,27.8831544 24.3365487,27.6098107 L19.3930259,22.5181297 C18.8635513,21.971233 18.0023429,21.9722787 17.4714471,22.5172931 C16.9413634,23.0654446 16.9407543,23.9511453 17.4722592,24.4988785 L22.4145639,29.5895138 C22.9448506,30.1368287 23.8058559,30.1368287 24.3365487,29.5895138 M25.3396676,14.999817 C25.3394646,15.3586983 25.4718333,15.7175796 25.7383978,15.9923874 L30.6802964,21.081977 C31.2107862,21.6288736 32.0715885,21.6288736 32.6026873,21.081977 C32.8670186,20.8086332 32.9999963,20.4507976 32.9999963,20.0923346 C33.0004023,19.7347081 32.8676276,19.376245 32.6026873,19.1020647 L28.6192433,14.999817 L32.6026873,10.8975693 C32.8676276,10.6242255 33.0004023,10.2655534 32.9999963,9.90750859 C32.9999963,9.54883641 32.8670186,9.19100078 32.6026873,8.91765702 C32.0715885,8.37096951 31.2107862,8.37096951 30.6802964,8.91765702 L25.7383978,14.0074558 C25.4718333,14.2816361 25.3394646,14.6403083 25.3396676,14.999817 M32.6026873,0.410329341 C32.0715885,-0.136776447 31.2107862,-0.136776447 30.6802964,0.410329341 L25.7383978,5.50054637 C25.2066899,6.04869785 25.207299,6.93439854 25.7375857,7.48213175 C26.2680754,8.0279827 27.1292838,8.0279827 27.6589615,7.48171347 L32.6026873,2.39024161 C32.8676276,2.11627044 33.0008084,1.75801653 32.9999963,1.39997177 C32.9999963,1.04150872 32.8670186,0.683882234 32.6026873,0.410329341 M32.6026873,29.5895138 C32.8670186,29.3159609 32.9999963,28.9585436 32.9999963,28.5998714 C33.0008084,28.2418266 32.8676276,27.8831544 32.6026873,27.6098107 L27.6589615,22.5181297 C27.1292838,21.971233 26.2680754,21.9722787 25.7375857,22.5172931 C25.207299,23.0654446 25.2066899,23.9511453 25.7383978,24.4988785 L30.6802964,29.5895138 C31.2107862,30.1368287 32.0715885,30.1368287 32.6026873,29.5895138 M15.5277392,14.0074558 L10.5856375,8.91765702 C10.0549448,8.37096951 9.1937364,8.37096951 8.66324666,8.91765702 C8.39850934,9.19100078 8.26614068,9.54883641 8.26614068,9.90750859 C8.26512558,10.2655534 8.3981033,10.6242255 8.66324666,10.8975693 L12.6464876,14.999817 L8.66324666,19.1020647 C8.3981033,19.376245 8.26512558,19.7347081 8.26614068,20.0923346 C8.26614068,20.4507976 8.39850934,20.8086332 8.66324666,21.081977 C9.1937364,21.6288736 10.0549448,21.6288736 10.5856375,21.081977 L15.5277392,15.9923874 C15.7936946,15.7175796 15.9260633,15.3586983 15.9260633,14.999817 C15.9260633,14.6403083 15.7936946,14.2816361 15.5277392,14.0074558 M8.66324666,0.410329341 C8.39850934,0.683882234 8.26614068,1.04150872 8.26614068,1.39997177 C8.26512558,1.75801653 8.3981033,2.11627044 8.66324666,2.39024161 L13.6063634,7.48171347 C14.1366502,8.0279827 14.9974525,8.0279827 15.5281452,7.48213175 C16.058635,6.93439854 16.058838,6.04869785 15.5277392,5.50054637 L10.5856375,0.410329341 C10.0549448,-0.136776447 9.1937364,-0.136776447 8.66324666,0.410329341 M8.66324666,29.5895138 C9.1937364,30.1368287 10.0549448,30.1368287 10.5856375,29.5895138 L15.5277392,24.4988785 C16.058838,23.9511453 16.058635,23.0654446 15.5281452,22.5172931 C14.9974525,21.9722787 14.1366502,21.971233 13.6063634,22.5181297 L8.66324666,27.6098107 C8.3981033,27.8831544 8.26512558,28.2418266 8.26614068,28.5998714 C8.26614068,28.9585436 8.39850934,29.3159609 8.66324666,29.5895138 M7.26180362,14.0074558 L2.31949892,8.91765702 C1.78900918,8.37096951 0.928206853,8.37096951 0.397311076,8.91765702 C0.132776775,9.19100078 2.07636832e-06,9.54883641 2.07636832e-06,9.90750859 C-0.000606981884,10.2655534 0.132776775,10.6242255 0.397311076,10.8975693 L4.38075507,14.999817 L0.397311076,19.1020647 C0.132776775,19.376245 -0.000606981884,19.7347081 2.07636832e-06,20.0923346 C2.07636832e-06,20.4507976 0.132776775,20.8086332 0.397311076,21.081977 C0.928206853,21.6288736 1.78900918,21.6288736 2.31949892,21.081977 L7.26180362,15.9923874 C7.52755604,15.7175796 7.66053376,15.3586983 7.66033074,14.999817 C7.66053376,14.6403083 7.52755604,14.2816361 7.26180362,14.0074558 M0.397311076,0.410329341 C0.132776775,0.683882234 2.07636832e-06,1.04150872 2.07636832e-06,1.39997177 C-0.000606981884,1.75801653 0.132776775,2.11627044 0.397311076,2.39024161 L5.34083389,7.48171347 C5.87071457,8.0279827 6.73171992,8.0279827 7.26220966,7.48213175 C7.7926994,6.93439854 7.79330845,6.04869785 7.26180362,5.50054637 L2.31949892,0.410329341 C1.78900918,-0.136776447 0.928206853,-0.136776447 0.397311076,0.410329341 M0.397311076,29.5895138 C0.132776775,29.3159609 2.07636832e-06,28.9585436 2.07636832e-06,28.5998714 C-0.000606981884,28.2418266 0.132776775,27.8831544 0.397311076,27.6098107 L5.34083389,22.5181297 C5.87071457,21.971233 6.73171992,21.9722787 7.26220966,22.5172931 C7.7926994,23.0654446 7.79330845,23.9511453 7.26180362,24.4988785 L2.31949892,29.5895138 C1.78900918,30.1368287 0.928206853,30.1368287 0.397311076,29.5895138" id="Fill-48" fill="#B6B5B6" mask="url(#mask-2)"></path>
        </g>
    </g>
</svg>