<?xml version="1.0" encoding="UTF-8"?>
<svg width="53px" height="58px" viewBox="0 0 53 58" version="1.1" xmlns="http://www.w3.org/2000/svg" xmlns:xlink="http://www.w3.org/1999/xlink">
    <!-- Generator: Sketch 48.1 (47250) - http://www.bohemiancoding.com/sketch -->
    <title>Page 1</title>
    <desc>Created with Sketch.</desc>
    <defs>
        <polygon id="path-1" points="0 0 53 0 53 58 0 58"></polygon>
    </defs>
    <g id="Assets" stroke="none" stroke-width="1" fill="none" fill-rule="evenodd" transform="translate(-82.000000, -331.000000)">
        <g id="Page-1" transform="translate(82.000000, 331.000000)">
            <mask id="mask-2" fill="white">
                <use xlink:href="#path-1"></use>
            </mask>
            <g id="Clip-2"></g>
            <path d="M35.5220455,41.2525 C32.3324091,40.4211667 31.3085455,39.56325 31.3085455,38.222 C31.3085455,36.685 32.7275,35.6168333 35.1004545,35.6168333 C37.6010909,35.6168333 38.5285909,36.8130833 38.6105,38.57725 L41.7158182,38.57725 C41.6170455,36.1533333 40.1426818,33.9251667 37.206,33.2074167 L37.206,30.1213333 L32.9925,30.1213333 L32.9925,33.1639167 C30.2678182,33.756 28.0779545,35.53225 28.0779545,38.251 C28.0779545,41.5038333 30.7592727,43.1254167 34.6788636,44.0703333 C38.1889091,44.9161667 38.8923636,46.1559167 38.8923636,47.46575 C38.8923636,48.4396667 38.2033636,49.98875 35.1004545,49.98875 C32.2071364,49.98875 31.0676364,48.6934167 30.9134545,47.03075 L27.825,47.03075 C27.9936364,50.1168333 30.2967273,51.8495833 32.9925,52.4271667 L32.9925,55.4866667 L37.206,55.4866667 L37.206,52.4561667 C39.9475455,51.9341667 42.1229545,50.3415833 42.1229545,47.45125 C42.1229545,43.44925 38.7092727,42.0838333 35.5220455,41.2525 M53,13.2916667 L53,48.3333333 C53,53.65 48.6636364,58 43.3636364,58 L25.7772727,58 C23.1754545,58 20.7181818,56.9608333 18.9113636,55.12175 L0,35.8391667 C0,35.8391667 3.03545455,32.86425 3.13181818,32.8183333 C3.66181818,32.35675 4.31227273,32.1175 5.035,32.1175 C5.565,32.1175 6.04681818,32.2600833 6.48045455,32.5041667 C6.57681818,32.5283333 16.8636364,38.4491667 16.8636364,38.4491667 L16.8636364,9.66666667 C16.8636364,7.66083333 18.4777273,6.04166667 20.4772727,6.04166667 C22.4768182,6.04166667 24.0909091,7.66083333 24.0909091,9.66666667 L24.0909091,26.5833333 L26.5,26.5833333 L26.5,3.625 C26.5,1.61916667 28.1140909,0 30.1136364,0 C32.1131818,0 33.7272727,1.61916667 33.7272727,3.625 L33.7272727,26.5833333 L36.1363636,26.5833333 L36.1363636,6.04166667 C36.1363636,4.03583333 37.7504545,2.41666667 39.75,2.41666667 C41.7495455,2.41666667 43.3636364,4.03583333 43.3636364,6.04166667 L43.3636364,26.5833333 L45.7727273,26.5833333 L45.7727273,13.2916667 C45.7727273,11.2858333 47.3868182,9.66666667 49.3863636,9.66666667 C51.3859091,9.66666667 53,11.2858333 53,13.2916667" id="Fill-1" fill="#FFFFFF" mask="url(#mask-2)"></path>
        </g>
    </g>
</svg>