<?xml version="1.0" encoding="UTF-8"?>
<svg width="54px" height="86px" viewBox="0 0 54 86" version="1.1" xmlns="http://www.w3.org/2000/svg" xmlns:xlink="http://www.w3.org/1999/xlink">
    <!-- Generator: Sketch 48.1 (47250) - http://www.bohemiancoding.com/sketch -->
    <title>Page 1</title>
    <desc>Created with Sketch.</desc>
    <defs></defs>
    <g id="Assets" stroke="none" stroke-width="1" fill="none" fill-rule="evenodd" transform="translate(-536.000000, -2863.000000)">
        <g id="Page-1" transform="translate(536.000000, 2863.000000)" fill="#2196F3">
            <polygon id="Fill-1" points="44.5119 9 41 9 41 17.5747123 44.5119 17.5747123 44.5119 69.4258396 41 69.4258396 41 78 44.5119 78 54 78 54 9"></polygon>
            <polygon id="Fill-2" points="9.23979877 9 0 9 0 78 9.23979877 78 21 78 9.23979877 70.3308806 9.23979877 69.4258396 9.23979877 17.5747123 9.23979877 15.3612246 19.019564 9"></polygon>
            <polygon id="Fill-3" points="39 0 24.4714013 9.20600757 12 17.1077252 12 17.760696 12 68.8399711 13.0274539 69.4907396 26.4873861 78.0448775 39 86 39 78.0448775 39 69.4907396 39 17.760696 39 9.20600757"></polygon>
        </g>
    </g>
</svg>