<?xml version="1.0" encoding="UTF-8"?>
<svg width="45px" height="62px" viewBox="0 0 45 62" version="1.1" xmlns="http://www.w3.org/2000/svg" xmlns:xlink="http://www.w3.org/1999/xlink">
    <!-- Generator: Sketch 48.1 (47250) - http://www.bohemiancoding.com/sketch -->
    <title>Page 1</title>
    <desc>Created with Sketch.</desc>
    <defs>
        <polygon id="path-1" points="0 0 45 0 45 62 0 62"></polygon>
    </defs>
    <g id="Assets" stroke="none" stroke-width="1" fill="none" fill-rule="evenodd" transform="translate(-86.000000, -229.000000)">
        <g id="Page-1" transform="translate(86.000000, 229.000000)">
            <mask id="mask-2" fill="white">
                <use xlink:href="#path-1"></use>
            </mask>
            <g id="Clip-2"></g>
            <path d="M42.27,37.9971429 L28.65,31.3247619 C28.14,31.1180952 27.6,31 27.03,31 L24.75,31 L24.75,13.2857143 C24.75,10.8352381 22.74,8.85714286 20.25,8.85714286 C17.76,8.85714286 15.75,10.8352381 15.75,13.2857143 L15.75,44.9942857 L5.46,42.865619 C5.22,42.8390476 5.01,42.78 4.74,42.78 C3.81,42.78 2.97,43.1638095 2.37,43.7542857 L0,46.1161905 L14.82,60.698 C15.63,61.4980952 16.77,62 18,62 L38.37,62 C40.62,62 42.36,60.3761905 42.693,58.2209524 L44.943,42.6619048 C44.97,42.4552381 45,42.245619 45,42.0714286 C45,40.2409524 43.86,38.6466667 42.27,37.9971429 M12.75,24.327619 L12.75,13.2857143 C12.75,9.21142857 16.11,5.9047619 20.25,5.9047619 C24.39,5.9047619 27.75,9.21142857 27.75,13.2857143 L27.75,24.327619 C31.38,21.9361905 33.75,17.8914286 33.75,13.2857143 C33.75,5.93428571 27.72,0 20.25,0 C12.78,0 6.75,5.93428571 6.75,13.2857143 C6.75,17.8914286 9.12,21.9361905 12.75,24.327619" id="Fill-1" fill="#FFFFFF" mask="url(#mask-2)"></path>
        </g>
    </g>
</svg>